<?xml version="1.0" encoding="UTF-8"?>
<svg xmlns="http://www.w3.org/2000/svg" xmlns:xlink="http://www.w3.org/1999/xlink" width="1200" height="1200" viewBox="0 0 500 600">
<path fill-rule="evenodd" fill="rgb(0, 255, 255)" fill-opacity="1" d="M 146.625 43.5 C 120.726562 43.5 99.75 64.5 99.75 90.375 L 99.75 521.625 C 99.75 547.5 120.75 568.5 146.625 568.5 L 465.375 568.5 C 491.25 568.5 512.25 547.5 512.25 521.625 L 512.25 324.75 C 512.25 323.214844 512.210938 321.683594 512.136719 320.148438 C 512.0625 318.617188 511.949219 317.085938 511.796875 315.5625 C 511.648438 314.035156 511.460938 312.511719 511.234375 310.992188 C 511.011719 309.476562 510.746094 307.964844 510.449219 306.460938 C 510.148438 304.957031 509.8125 303.457031 509.441406 301.96875 C 509.066406 300.480469 508.660156 299.003906 508.214844 297.535156 C 507.769531 296.066406 507.285156 294.609375 506.769531 293.167969 C 506.253906 291.722656 505.699219 290.289062 505.113281 288.875 C 504.527344 287.457031 503.90625 286.054688 503.25 284.667969 C 502.59375 283.28125 501.902344 281.910156 501.179688 280.554688 C 500.457031 279.203125 499.699219 277.867188 498.910156 276.554688 C 498.125 275.238281 497.300781 273.941406 496.449219 272.664062 C 495.597656 271.390625 494.714844 270.136719 493.800781 268.902344 C 492.886719 267.671875 491.941406 266.460938 490.96875 265.277344 C 489.996094 264.089844 488.996094 262.929688 487.964844 261.792969 C 486.933594 260.65625 485.875 259.542969 484.792969 258.457031 C 483.707031 257.375 482.59375 256.316406 481.457031 255.285156 C 480.320312 254.253906 479.160156 253.253906 477.972656 252.28125 C 476.789062 251.308594 475.578125 250.363281 474.347656 249.449219 C 473.113281 248.535156 471.859375 247.652344 470.585938 246.800781 C 469.308594 245.949219 468.011719 245.125 466.695312 244.335938 C 465.382812 243.550781 464.046875 242.792969 462.695312 242.070312 C 461.339844 241.347656 459.96875 240.65625 458.582031 240 C 457.195312 239.34375 455.792969 238.722656 454.375 238.136719 C 452.960938 237.550781 451.527344 236.996094 450.082031 236.480469 C 448.640625 235.964844 447.183594 235.480469 445.714844 235.035156 C 444.246094 234.589844 442.769531 234.183594 441.28125 233.808594 C 439.789062 233.4375 438.292969 233.101562 436.789062 232.800781 C 435.285156 232.503906 433.773438 232.238281 432.257812 232.015625 C 430.738281 231.789062 429.214844 231.601562 427.6875 231.453125 C 426.164062 231.300781 424.632812 231.1875 423.101562 231.113281 C 421.566406 231.039062 420.035156 231 418.5 231 L 371.625 231 C 370.089844 231 368.558594 230.925781 367.03125 230.773438 C 365.503906 230.625 363.984375 230.398438 362.480469 230.097656 C 360.972656 229.800781 359.488281 229.425781 358.019531 228.980469 C 356.546875 228.535156 355.105469 228.019531 353.6875 227.433594 C 352.269531 226.84375 350.882812 226.1875 349.527344 225.464844 C 348.175781 224.742188 346.859375 223.953125 345.582031 223.101562 C 344.304688 222.246094 343.074219 221.332031 341.886719 220.359375 C 340.699219 219.386719 339.566406 218.355469 338.480469 217.269531 C 337.394531 216.183594 336.363281 215.050781 335.390625 213.863281 C 334.417969 212.675781 333.503906 211.445312 332.648438 210.167969 C 331.796875 208.890625 331.007812 207.574219 330.285156 206.222656 C 329.5625 204.867188 328.90625 203.480469 328.316406 202.0625 C 327.730469 200.644531 327.214844 199.199219 326.769531 197.730469 C 326.324219 196.261719 325.949219 194.777344 325.652344 193.269531 C 325.351562 191.765625 325.125 190.246094 324.976562 188.71875 C 324.824219 187.191406 324.75 185.660156 324.75 184.125 L 324.75 137.25 C 324.75 135.714844 324.710938 134.183594 324.636719 132.648438 C 324.5625 131.117188 324.449219 129.585938 324.296875 128.0625 C 324.148438 126.535156 323.960938 125.011719 323.734375 123.492188 C 323.511719 121.976562 323.246094 120.464844 322.949219 118.960938 C 322.648438 117.457031 322.3125 115.957031 321.941406 114.46875 C 321.566406 112.980469 321.160156 111.503906 320.714844 110.035156 C 320.269531 108.566406 319.785156 107.109375 319.269531 105.667969 C 318.753906 104.222656 318.199219 102.789062 317.613281 101.375 C 317.027344 99.957031 316.40625 98.554688 315.75 97.167969 C 315.09375 95.78125 314.402344 94.410156 313.679688 93.054688 C 312.957031 91.703125 312.199219 90.367188 311.410156 89.054688 C 310.625 87.738281 309.800781 86.441406 308.949219 85.164062 C 308.097656 83.890625 307.214844 82.636719 306.300781 81.402344 C 305.386719 80.171875 304.441406 78.960938 303.46875 77.777344 C 302.496094 76.589844 301.496094 75.429688 300.464844 74.292969 C 299.433594 73.15625 298.375 72.042969 297.292969 70.957031 C 296.207031 69.875 295.09375 68.816406 293.957031 67.785156 C 292.820312 66.753906 291.660156 65.753906 290.472656 64.78125 C 289.289062 63.808594 288.078125 62.863281 286.847656 61.949219 C 285.613281 61.035156 284.359375 60.152344 283.085938 59.300781 C 281.808594 58.449219 280.511719 57.625 279.195312 56.839844 C 277.882812 56.050781 276.546875 55.292969 275.195312 54.570312 C 273.839844 53.847656 272.46875 53.15625 271.082031 52.5 C 269.695312 51.84375 268.292969 51.222656 266.875 50.636719 C 265.460938 50.050781 264.027344 49.496094 262.582031 48.980469 C 261.140625 48.464844 259.683594 47.980469 258.214844 47.535156 C 256.746094 47.089844 255.269531 46.683594 253.78125 46.308594 C 252.292969 45.9375 250.792969 45.601562 249.289062 45.300781 C 247.785156 45.003906 246.273438 44.738281 244.757812 44.515625 C 243.238281 44.289062 241.714844 44.101562 240.1875 43.953125 C 238.664062 43.800781 237.132812 43.6875 235.601562 43.613281 C 234.066406 43.539062 232.535156 43.5 231 43.5 Z M 193.5 381 C 193.5 380.386719 193.53125 379.773438 193.589844 379.164062 C 193.652344 378.550781 193.742188 377.945312 193.859375 377.34375 C 193.980469 376.738281 194.128906 376.144531 194.308594 375.558594 C 194.484375 374.96875 194.691406 374.390625 194.925781 373.824219 C 195.164062 373.257812 195.425781 372.703125 195.714844 372.160156 C 196.003906 371.621094 196.320312 371.09375 196.660156 370.582031 C 197 370.074219 197.367188 369.578125 197.757812 369.105469 C 198.144531 368.628906 198.558594 368.175781 198.992188 367.742188 C 199.425781 367.308594 199.878906 366.894531 200.355469 366.507812 C 200.828125 366.117188 201.324219 365.75 201.832031 365.410156 C 202.34375 365.070312 202.871094 364.753906 203.410156 364.464844 C 203.953125 364.175781 204.507812 363.914062 205.074219 363.675781 C 205.640625 363.441406 206.21875 363.234375 206.808594 363.058594 C 207.394531 362.878906 207.988281 362.730469 208.59375 362.609375 C 209.195312 362.492188 209.800781 362.402344 210.414062 362.339844 C 211.023438 362.28125 211.636719 362.25 212.25 362.25 L 399.75 362.25 C 400.363281 362.25 400.976562 362.28125 401.585938 362.339844 C 402.199219 362.402344 402.804688 362.492188 403.40625 362.609375 C 404.011719 362.730469 404.605469 362.878906 405.191406 363.058594 C 405.78125 363.234375 406.359375 363.441406 406.925781 363.675781 C 407.492188 363.914062 408.046875 364.175781 408.589844 364.464844 C 409.128906 364.753906 409.65625 365.070312 410.167969 365.410156 C 410.675781 365.75 411.171875 366.117188 411.644531 366.507812 C 412.121094 366.894531 412.574219 367.308594 413.007812 367.742188 C 413.441406 368.175781 413.855469 368.628906 414.242188 369.105469 C 414.632812 369.578125 415 370.074219 415.339844 370.582031 C 415.679688 371.09375 415.996094 371.621094 416.285156 372.160156 C 416.574219 372.703125 416.835938 373.257812 417.074219 373.824219 C 417.308594 374.390625 417.515625 374.96875 417.691406 375.558594 C 417.871094 376.144531 418.019531 376.738281 418.140625 377.34375 C 418.257812 377.945312 418.347656 378.550781 418.410156 379.164062 C 418.46875 379.773438 418.5 380.386719 418.5 381 C 418.5 381.613281 418.46875 382.226562 418.410156 382.835938 C 418.347656 383.449219 418.257812 384.054688 418.140625 384.65625 C 418.019531 385.261719 417.871094 385.855469 417.691406 386.441406 C 417.515625 387.03125 417.308594 387.609375 417.074219 388.175781 C 416.835938 388.742188 416.574219 389.296875 416.285156 389.839844 C 415.996094 390.378906 415.679688 390.90625 415.339844 391.417969 C 415 391.925781 414.632812 392.421875 414.242188 392.894531 C 413.855469 393.371094 413.441406 393.824219 413.007812 394.257812 C 412.574219 394.691406 412.121094 395.105469 411.644531 395.492188 C 411.171875 395.882812 410.675781 396.25 410.167969 396.589844 C 409.65625 396.929688 409.128906 397.246094 408.589844 397.535156 C 408.046875 397.824219 407.492188 398.085938 406.925781 398.324219 C 406.359375 398.558594 405.78125 398.765625 405.191406 398.941406 C 404.605469 399.121094 404.011719 399.269531 403.40625 399.390625 C 402.804688 399.507812 402.199219 399.597656 401.585938 399.660156 C 400.976562 399.71875 400.363281 399.75 399.75 399.75 L 212.25 399.75 C 211.636719 399.75 211.023438 399.71875 210.414062 399.660156 C 209.800781 399.597656 209.195312 399.507812 208.59375 399.390625 C 207.988281 399.269531 207.394531 399.121094 206.808594 398.941406 C 206.21875 398.765625 205.640625 398.558594 205.074219 398.324219 C 204.507812 398.085938 203.953125 397.824219 203.410156 397.535156 C 202.871094 397.246094 202.34375 396.929688 201.832031 396.589844 C 201.324219 396.25 200.828125 395.882812 200.355469 395.492188 C 199.878906 395.105469 199.425781 394.691406 198.992188 394.257812 C 198.558594 393.824219 198.144531 393.371094 197.757812 392.894531 C 197.367188 392.421875 197 391.925781 196.660156 391.417969 C 196.320312 390.90625 196.003906 390.378906 195.714844 389.839844 C 195.425781 389.296875 195.164062 388.742188 194.925781 388.175781 C 194.691406 387.609375 194.484375 387.03125 194.308594 386.441406 C 194.128906 385.855469 193.980469 385.261719 193.859375 384.65625 C 193.742188 384.054688 193.652344 383.449219 193.589844 382.835938 C 193.53125 382.226562 193.5 381.613281 193.5 381 Z M 212.25 437.25 C 211.636719 437.25 211.023438 437.28125 210.414062 437.339844 C 209.800781 437.402344 209.195312 437.492188 208.59375 437.609375 C 207.988281 437.730469 207.394531 437.878906 206.808594 438.058594 C 206.21875 438.234375 205.640625 438.441406 205.074219 438.675781 C 204.507812 438.914062 203.953125 439.175781 203.410156 439.464844 C 202.871094 439.753906 202.34375 440.070312 201.832031 440.410156 C 201.324219 440.75 200.828125 441.117188 200.355469 441.507812 C 199.878906 441.894531 199.425781 442.308594 198.992188 442.742188 C 198.558594 443.175781 198.144531 443.628906 197.757812 444.105469 C 197.367188 444.578125 197 445.074219 196.660156 445.582031 C 196.320312 446.09375 196.003906 446.621094 195.714844 447.160156 C 195.425781 447.703125 195.164062 448.257812 194.925781 448.824219 C 194.691406 449.390625 194.484375 449.96875 194.308594 450.558594 C 194.128906 451.144531 193.980469 451.738281 193.859375 452.34375 C 193.742188 452.945312 193.652344 453.550781 193.589844 454.164062 C 193.53125 454.773438 193.5 455.386719 193.5 456 C 193.5 456.613281 193.53125 457.226562 193.589844 457.835938 C 193.652344 458.449219 193.742188 459.054688 193.859375 459.65625 C 193.980469 460.261719 194.128906 460.855469 194.308594 461.441406 C 194.484375 462.03125 194.691406 462.609375 194.925781 463.175781 C 195.164062 463.742188 195.425781 464.296875 195.714844 464.839844 C 196.003906 465.378906 196.320312 465.90625 196.660156 466.417969 C 197 466.925781 197.367188 467.421875 197.757812 467.894531 C 198.144531 468.371094 198.558594 468.824219 198.992188 469.257812 C 199.425781 469.691406 199.878906 470.105469 200.355469 470.492188 C 200.828125 470.882812 201.324219 471.25 201.832031 471.589844 C 202.34375 471.929688 202.871094 472.246094 203.410156 472.535156 C 203.953125 472.824219 204.507812 473.085938 205.074219 473.324219 C 205.640625 473.558594 206.21875 473.765625 206.808594 473.941406 C 207.394531 474.121094 207.988281 474.269531 208.59375 474.390625 C 209.195312 474.507812 209.800781 474.597656 210.414062 474.660156 C 211.023438 474.71875 211.636719 474.75 212.25 474.75 L 306 474.75 C 306.613281 474.75 307.226562 474.71875 307.835938 474.660156 C 308.449219 474.597656 309.054688 474.507812 309.65625 474.390625 C 310.261719 474.269531 310.855469 474.121094 311.441406 473.941406 C 312.03125 473.765625 312.609375 473.558594 313.175781 473.324219 C 313.742188 473.085938 314.296875 472.824219 314.839844 472.535156 C 315.378906 472.246094 315.90625 471.929688 316.417969 471.589844 C 316.925781 471.25 317.421875 470.882812 317.894531 470.492188 C 318.371094 470.105469 318.824219 469.691406 319.257812 469.257812 C 319.691406 468.824219 320.105469 468.371094 320.492188 467.894531 C 320.882812 467.421875 321.25 466.925781 321.589844 466.417969 C 321.929688 465.90625 322.246094 465.378906 322.535156 464.839844 C 322.824219 464.296875 323.085938 463.742188 323.324219 463.175781 C 323.558594 462.609375 323.765625 462.03125 323.941406 461.441406 C 324.121094 460.855469 324.269531 460.261719 324.390625 459.65625 C 324.507812 459.054688 324.597656 458.449219 324.660156 457.835938 C 324.71875 457.226562 324.75 456.613281 324.75 456 C 324.75 455.386719 324.71875 454.773438 324.660156 454.164062 C 324.597656 453.550781 324.507812 452.945312 324.390625 452.34375 C 324.269531 451.738281 324.121094 451.144531 323.941406 450.558594 C 323.765625 449.96875 323.558594 449.390625 323.324219 448.824219 C 323.085938 448.257812 322.824219 447.703125 322.535156 447.160156 C 322.246094 446.621094 321.929688 446.09375 321.589844 445.582031 C 321.25 445.074219 320.882812 444.578125 320.492188 444.105469 C 320.105469 443.628906 319.691406 443.175781 319.257812 442.742188 C 318.824219 442.308594 318.371094 441.894531 317.894531 441.507812 C 317.421875 441.117188 316.925781 440.75 316.417969 440.410156 C 315.90625 440.070312 315.378906 439.753906 314.839844 439.464844 C 314.296875 439.175781 313.742188 438.914062 313.175781 438.675781 C 312.609375 438.441406 312.03125 438.234375 311.441406 438.058594 C 310.855469 437.878906 310.261719 437.730469 309.65625 437.609375 C 309.054688 437.492188 308.449219 437.402344 307.835938 437.339844 C 307.226562 437.28125 306.613281 437.25 306 437.25 Z M 212.25 437.25 "/>
<path fill-rule="nonzero" fill="rgb(0%, 0%, 0%)" fill-opacity="1" d="M 330.273438 51.398438 C 332.832031 54.347656 335.253906 57.40625 337.535156 60.570312 C 339.820312 63.734375 341.957031 66.996094 343.945312 70.351562 C 345.9375 73.707031 347.777344 77.144531 349.460938 80.667969 C 351.144531 84.1875 352.664062 87.777344 354.027344 91.433594 C 355.390625 95.089844 356.585938 98.800781 357.617188 102.566406 C 358.644531 106.328125 359.503906 110.132812 360.195312 113.972656 C 360.882812 117.8125 361.398438 121.679688 361.742188 125.566406 C 362.085938 129.453125 362.253906 133.347656 362.25 137.25 L 362.25 184.125 C 362.25 189.300781 366.449219 193.5 371.625 193.5 L 418.5 193.5 C 422.402344 193.496094 426.296875 193.664062 430.183594 194.007812 C 434.070312 194.351562 437.9375 194.867188 441.777344 195.554688 C 445.617188 196.246094 449.421875 197.105469 453.183594 198.132812 C 456.949219 199.164062 460.660156 200.359375 464.316406 201.722656 C 467.972656 203.085938 471.5625 204.605469 475.082031 206.289062 C 478.605469 207.972656 482.042969 209.8125 485.398438 211.804688 C 488.753906 213.792969 492.015625 215.929688 495.179688 218.214844 C 498.34375 220.496094 501.402344 222.917969 504.351562 225.476562 C 502.984375 220.273438 501.445312 215.125 499.738281 210.027344 C 498.03125 204.925781 496.15625 199.890625 494.117188 194.914062 C 492.074219 189.941406 489.875 185.039062 487.507812 180.207031 C 485.144531 175.378906 482.625 170.632812 479.945312 165.96875 C 477.269531 161.304688 474.441406 156.734375 471.460938 152.257812 C 468.480469 147.78125 465.355469 143.410156 462.089844 139.140625 C 458.820312 134.871094 455.414062 130.710938 451.871094 126.667969 C 448.328125 122.625 444.65625 118.699219 440.851562 114.898438 C 437.050781 111.09375 433.125 107.421875 429.082031 103.878906 C 425.039062 100.335938 420.878906 96.929688 416.609375 93.660156 C 412.339844 90.394531 407.96875 87.269531 403.492188 84.289062 C 399.015625 81.308594 394.445312 78.480469 389.78125 75.804688 C 385.117188 73.125 380.371094 70.605469 375.542969 68.242188 C 370.710938 65.875 365.808594 63.675781 360.835938 61.632812 C 355.859375 59.59375 350.824219 57.71875 345.722656 56.011719 C 340.625 54.304688 335.476562 52.765625 330.273438 51.398438 Z M 330.273438 51.398438 "/>
</svg>
